<?xml version="1.0" encoding="utf-8"?>

<!-- License Agreement at http://iconmonstr.com/license/ -->

<!DOCTYPE svg PUBLIC "-//W3C//DTD SVG 1.1//EN" "http://www.w3.org/Graphics/SVG/1.1/DTD/svg11.dtd">
<svg version="1.1" xmlns="http://www.w3.org/2000/svg" xmlns:xlink="http://www.w3.org/1999/xlink" x="0px" y="0px"
	 width="512px" height="512px" viewBox="0 0 512 512" enable-background="new 0 0 512 512" xml:space="preserve">
<path id="bitcoin-4-icon" d="M256,90c91.741,0,166,74.242,166,166c0,91.742-74.243,166-166,166c-91.739,0-166-74.243-166-166
	C90,164.259,164.244,90,256,90z M256,50C142.229,50,50,142.229,50,256c0,113.771,92.229,206,206,206c113.771,0,206-92.229,206-206
	C462,142.229,369.771,50,256,50z M319.611,247.111c19.242-13.782,27.061-62.479-35.161-68.896l-0.001-30.322h-25.2l0.002,29.434
	h-10.684v-29.434h-25.182l-0.009,29.434h-40.215l0.007,27.262l18.686-0.012c6.112,0.002,7.273,2.881,7.273,6.642v86.11
	c0,4.787-2.317,7.13-7.492,7.13h-14.106l-4.831,29.187h40.684l0.008,30.461h25.178v-30.461h10.684l-0.009,30.461h25.201v-30.559
	C360.674,328.316,356.6,259.899,319.611,247.111z M248.567,240.632v-34.646c18.221,0,41.86-0.531,41.864,17.337
	C290.426,240.507,266.148,240.632,248.567,240.632z M248.567,265.929c20.207-0.4,51.143-0.951,51.141,19.357
	c0.008,19.734-31.776,19.189-51.141,19.189V265.929z"/>
</svg>
